<svg xmlns="http://www.w3.org/2000/svg" width="50px" height="54px" viewBox="0 0 50 53.57"><title>logo-primary</title><path d="M47.32,38.52V36.61a2.68,2.68,0,0,0-2.68-2.68H39.71c-1.19,0-1.32-1.25-1.32-1.79a3.58,3.58,0,0,0-3.57-3.57H22.32V25H35.71a3.58,3.58,0,0,0,3.57-3.57,1.79,1.79,0,0,1,1.79-1.79h3.57A2.68,2.68,0,0,0,47.32,17V15.05a3.57,3.57,0,1,0-1.79,0V17a.89.89,0,0,1-.89.89H41.07a3.58,3.58,0,0,0-3.57,3.57,1.79,1.79,0,0,1-1.79,1.79H22.32V17.86h4.46a4.47,4.47,0,0,0,4.46-4.46A1.79,1.79,0,0,1,33,11.61h2.68a2.68,2.68,0,0,0,2.68-2.68V7a3.57,3.57,0,1,0-1.79,0V8.93a.89.89,0,0,1-.89.89H33a3.58,3.58,0,0,0-3.57,3.57,2.68,2.68,0,0,1-2.68,2.68H22.32V6.66a4.89,4.89,0,0,0-4.89-4.88,4.37,4.37,0,0,0-4,2.85,6.13,6.13,0,0,1,2.66,5.19.89.89,0,1,1-1.79,0,4.12,4.12,0,0,0-2.34-3.95,6,6,0,0,0-1.26-.24A3.93,3.93,0,0,0,6.75,9.55a3.83,3.83,0,0,0,.57,2A.89.89,0,0,1,6,12.73a2,2,0,0,0-1.15-.36,2,2,0,0,0-1.59,1,1.1,1.1,0,0,0-.07.94,4.23,4.23,0,0,1,3.91,4.42.89.89,0,0,1-1.79,0,2.5,2.5,0,0,0-2.59-2.67A3.69,3.69,0,0,0,0,19.16a3,3,0,0,0,1.56,2.58.89.89,0,0,1,0,1.57A2.92,2.92,0,0,0,2,28.66a.89.89,0,0,1,.22,1.57,2.91,2.91,0,0,0-.46,4.37A7.23,7.23,0,0,1,8,30.36a.89.89,0,1,1,0,1.79,5.52,5.52,0,0,0-5,4.07s0,0,0,0a4.85,4.85,0,0,0,4.74,6.06.89.89,0,0,1,.89.89,6.86,6.86,0,0,0,13.64.91V42.86a7.15,7.15,0,0,0-7.14-7.14.89.89,0,0,1,0-1.79,8.91,8.91,0,0,1,7.14,3.59v-.92h3.57a3.58,3.58,0,0,1,3.57,3.57A3.58,3.58,0,0,0,33,43.75a.89.89,0,0,1,.89.89v1.91a3.57,3.57,0,1,0,1.79,0V44.64A2.68,2.68,0,0,0,33,42a1.79,1.79,0,0,1-1.79-1.79,5.36,5.36,0,0,0-5.36-5.36H22.32V30.36h12.5a1.79,1.79,0,0,1,1.79,1.79c0,2.14,1.25,3.57,3.1,3.57h4.93a.89.89,0,0,1,.89.89v1.91a3.57,3.57,0,1,0,1.79,0ZM16.07,43.75a.89.89,0,1,1,0-1.79,2.68,2.68,0,0,1,0,5.36.89.89,0,1,1,0-1.79.89.89,0,0,0,0-1.79ZM14.29,12.5a3.58,3.58,0,0,1,3.57,3.57.89.89,0,1,1-1.79,0,1.79,1.79,0,1,0-1.79,1.79.89.89,0,0,1,0,1.79,3.57,3.57,0,1,1,0-7.14ZM12.5,41.07a.89.89,0,1,1,0,1.79,2.68,2.68,0,0,1,0-5.36.89.89,0,1,1,0,1.79.89.89,0,0,0,0,1.79Zm2.68-9.82a4.47,4.47,0,0,1-4.46-4.46.89.89,0,0,1,1.79,0,2.68,2.68,0,1,0,2.68-2.68.89.89,0,0,1,0-1.79,4.46,4.46,0,0,1,0,8.93Z" fill="#46a6ff"/></svg>
