<svg xmlns="http://www.w3.org/2000/svg" viewBox="0 0 28 28"><path d="M28,6.92a.82.82,0,0,0-.18-.44L21.58.24A.83.83,0,0,0,21,0H2.46A2.46,2.46,0,0,0,0,2.46V25.54A2.46,2.46,0,0,0,2.46,28H25.54A2.46,2.46,0,0,0,28,25.54C28,5.62,28,7,28,6.92ZM18.87,1.64V7a.82.82,0,0,1-.82.82H17V1.64Zm-3.5,0V7.82H7.77A.82.82,0,0,1,6.95,7V1.64Zm3.5,15.91H6.95v-1a.82.82,0,0,1,.82-.82H18a.82.82,0,0,1,.82.82ZM6.95,26.36V19.2H18.87v7.16Zm19.41-.82a.82.82,0,0,1-.82.82h-5V16.52A2.46,2.46,0,0,0,18,14.05H7.77A2.46,2.46,0,0,0,5.3,16.52v9.84H2.46a.82.82,0,0,1-.82-.82V2.46a.82.82,0,0,1,.82-.82H5.3V7A2.46,2.46,0,0,0,7.77,9.46H18A2.46,2.46,0,0,0,20.51,7V1.64h.15l5.7,5.7Z"/></svg>
